<svg width="24" height="24" viewBox="0 0 24 24" fill="none" xmlns="http://www.w3.org/2000/svg">
<path d="M12 18.75C11.59 18.75 11.25 18.41 11.25 18V15C11.25 14.59 11.59 14.25 12 14.25C12.41 14.25 12.75 14.59 12.75 15V18C12.75 18.41 12.41 18.75 12 18.75Z" fill="black"/>
<path d="M17.601 22.5598H6.40094C4.58094 22.5598 2.92094 21.1598 2.62094 19.3698L1.29094 11.3998C1.07094 10.1598 1.68094 8.56982 2.67094 7.77982L9.60094 2.22982C10.941 1.14982 13.051 1.15982 14.401 2.23982L21.331 7.77982C22.311 8.56982 22.911 10.1598 22.711 11.3998L21.381 19.3598C21.081 21.1298 19.381 22.5598 17.601 22.5598ZM11.991 2.92982C11.461 2.92982 10.931 3.08982 10.541 3.39982L3.61094 8.95982C3.05094 9.40982 2.65094 10.4498 2.77094 11.1598L4.10094 19.1198C4.28094 20.1698 5.33094 21.0598 6.40094 21.0598H17.601C18.671 21.0598 19.721 20.1698 19.901 19.1098L21.231 11.1498C21.341 10.4498 20.941 9.38982 20.391 8.94982L13.461 3.40982C13.061 3.08982 12.521 2.92982 11.991 2.92982Z" fill="black"/>
</svg>
