<svg width="24" height="24" viewBox="0 0 24 24" fill="none" xmlns="http://www.w3.org/2000/svg">
<path d="M8.75999 1.73002L8.88999 1.73002C13.33 1.73002 15.47 3.48002 15.84 7.40002C15.88 7.81002 15.58 8.18002 15.16 8.22002C14.76 8.26002 14.38 7.95002 14.34 7.54002C14.05 4.40002 12.57 3.23002 8.87999 3.23002L8.74999 3.23002C4.67999 3.23002 3.23999 4.67002 3.23999 8.74002L3.23999 15.26C3.23998 19.33 4.67999 20.77 8.74998 20.77L8.87998 20.77C12.59 20.77 14.07 19.58 14.34 16.38C14.39 15.97 14.74 15.66 15.16 15.7C15.58 15.73 15.88 16.1 15.85 16.51C15.51 20.49 13.36 22.27 8.88999 22.27L8.75998 22.27C3.84999 22.27 1.74998 20.17 1.74999 15.26L1.74999 8.74002C1.74999 3.83002 3.84999 1.73002 8.75999 1.73002Z" fill="#3D3D3D"/>
<path d="M8.99988 11.25L20.3799 11.25C20.7899 11.25 21.1299 11.59 21.1299 12C21.1299 12.41 20.7899 12.75 20.3799 12.75L8.99988 12.75C8.58988 12.75 8.24988 12.41 8.24988 12C8.24988 11.59 8.58988 11.25 8.99988 11.25Z" fill="#3D3D3D"/>
<path d="M18.1501 7.89997C18.3401 7.89997 18.5301 7.96997 18.6801 8.11997L22.0301 11.47C22.3201 11.76 22.3201 12.24 22.0301 12.53L18.6801 15.88C18.3901 16.17 17.9101 16.17 17.6201 15.88C17.3301 15.59 17.3301 15.11 17.6201 14.82L20.4401 12L17.6201 9.17997C17.3301 8.88997 17.3301 8.40997 17.6201 8.11997C17.7601 7.96997 17.9601 7.89997 18.1501 7.89997Z" fill="#3D3D3D"/>
</svg>
