<svg width="32" height="32" viewBox="0 0 32 32" fill="none" xmlns="http://www.w3.org/2000/svg">
<path d="M15.9997 17.7333C15.8264 17.7333 15.653 17.6933 15.493 17.6L3.71972 10.7867C3.23972 10.5067 3.07969 9.89332 3.35969 9.41332C3.63969 8.93332 4.23969 8.7733 4.73303 9.0533L15.9997 15.5733L27.1997 9.09334C27.6797 8.81334 28.293 8.9867 28.573 9.45336C28.853 9.93336 28.6797 10.5467 28.213 10.8267L16.5197 17.6C16.3464 17.68 16.173 17.7333 15.9997 17.7333Z" fill="white"/>
<path d="M16 29.8134C15.4533 29.8134 15 29.3601 15 28.8134V16.72C15 16.1734 15.4533 15.72 16 15.72C16.5467 15.72 17 16.1734 17 16.72V28.8134C17 29.3601 16.5467 29.8134 16 29.8134Z" fill="white"/>
<path d="M15.9998 30.3333C14.8264 30.3333 13.6531 30.08 12.7464 29.56L5.62642 25.6134C3.69309 24.5467 2.1731 21.9733 2.1731 19.76V12.2133C2.1731 9.99995 3.69309 7.44002 5.62642 6.36002L12.7464 2.41332C14.5598 1.39999 17.4131 1.39999 19.2397 2.41332L26.3597 6.36002C28.2931 7.42668 29.8131 9.99995 29.8131 12.2133V19.76C29.8131 19.8533 29.8131 19.9866 29.7731 20.16C29.6931 20.5066 29.4397 20.7866 29.1064 20.8933C28.7731 21 28.3998 20.9333 28.1331 20.6933C26.6131 19.36 24.2397 19.3067 22.6131 20.6C21.5864 21.4133 20.9864 22.6533 20.9864 23.9733C20.9864 24.76 21.1997 25.5334 21.6131 26.2C21.7197 26.3867 21.8264 26.5333 21.9464 26.6667C22.1464 26.8933 22.2264 27.2 22.1731 27.4933C22.1198 27.7866 21.9331 28.0533 21.6664 28.1867L19.2264 29.5334C18.3331 30.08 17.1731 30.3333 15.9998 30.3333ZM15.9998 3.66666C15.1731 3.66666 14.3331 3.84 13.7331 4.17333L6.61308 8.12003C5.31974 8.84003 4.19975 10.7466 4.19975 12.2133V19.76C4.19975 21.2267 5.33308 23.1467 6.61308 23.8533L13.7331 27.8C14.9464 28.48 17.0664 28.48 18.2797 27.8L19.7731 26.9733C19.2797 26.08 19.0131 25.04 19.0131 23.9733C19.0131 22.0266 19.8798 20.2267 21.3864 19.0267C23.2131 17.5733 25.7997 17.2666 27.8264 18.1466V12.2C27.8264 10.7334 26.6931 8.81335 25.4131 8.10668L18.2931 4.15998C17.6664 3.83998 16.8264 3.66666 15.9998 3.66666Z" fill="white"/>
<path d="M25.3333 30.3333C21.84 30.3333 19 27.4933 19 24C19 22.0533 19.8667 20.2533 21.3733 19.0533C22.4933 18.16 23.9067 17.6667 25.3333 17.6667C28.8267 17.6667 31.6667 20.5067 31.6667 24C31.6667 25.8133 30.88 27.5467 29.5067 28.7467C28.3467 29.7733 26.8667 30.3333 25.3333 30.3333ZM25.3333 19.6667C24.3467 19.6667 23.4133 20 22.6267 20.6266C21.6 21.44 21 22.68 21 24C21 26.3867 22.9467 28.3333 25.3333 28.3333C26.3733 28.3333 27.3867 27.9467 28.2 27.2533C29.1333 26.4267 29.6667 25.2533 29.6667 24C29.6667 21.6133 27.72 19.6667 25.3333 19.6667Z" fill="white"/>
<path d="M23.9998 26.3333C23.6664 26.3333 23.3331 26.16 23.1464 25.8533C22.8664 25.3733 23.0131 24.76 23.4931 24.48L24.6798 23.7734V22.3333C24.6798 21.7867 25.1331 21.3333 25.6798 21.3333C26.2265 21.3333 26.6798 21.7867 26.6798 22.3333V24.3333C26.6798 24.68 26.4931 25.0133 26.1998 25.1867L24.5331 26.1867C24.3464 26.2933 24.1731 26.3333 23.9998 26.3333Z" fill="white"/>
</svg>
