<svg width="32" height="32" viewBox="0 0 32 32" fill="none" xmlns="http://www.w3.org/2000/svg">
<path d="M20.0002 30.3333C19.6402 30.3333 19.3068 30.1333 19.1335 29.8267C18.9602 29.52 18.9602 29.1333 19.1468 28.8267L20.5468 26.4933C20.8268 26.0133 21.4402 25.8666 21.9202 26.1466C22.4002 26.4266 22.5468 27.04 22.2668 27.52L21.9068 28.12C25.5868 27.2534 28.3468 23.9467 28.3468 20C28.3468 19.4533 28.8002 19 29.3468 19C29.8935 19 30.3468 19.4533 30.3468 20C30.3335 25.6933 25.6935 30.3333 20.0002 30.3333Z" fill="white"/>
<path d="M2.66675 13C2.12008 13 1.66675 12.5467 1.66675 12C1.66675 6.30667 6.30675 1.66667 12.0001 1.66667C12.3601 1.66667 12.6934 1.86668 12.8667 2.17334C13.0401 2.48001 13.0401 2.86668 12.8534 3.17334L11.4534 5.50668C11.1734 5.98668 10.5601 6.13336 10.0801 5.85336C9.60008 5.57336 9.45342 4.95999 9.73342 4.47999L10.0934 3.87997C6.41342 4.74664 3.65342 8.05334 3.65342 12C3.66676 12.5467 3.21341 13 2.66675 13Z" fill="white"/>
<path d="M23.5732 9.99983C23.3998 9.99983 23.2265 9.95986 23.0665 9.86653L17.7732 6.7998C17.2932 6.5198 17.1332 5.90651 17.4132 5.42651C17.6932 4.94651 18.3065 4.78648 18.7732 5.06648L23.5732 7.83984L28.3332 5.07983C28.8132 4.79983 29.4265 4.97319 29.6932 5.43985C29.9732 5.91985 29.7998 6.53315 29.3332 6.81315L24.0665 9.85318C23.9198 9.94652 23.7465 9.99983 23.5732 9.99983Z" fill="white"/>
<path d="M23.5735 15.4265C23.0268 15.4265 22.5735 14.9732 22.5735 14.4265V8.9865C22.5735 8.43983 23.0268 7.9865 23.5735 7.9865C24.1202 7.9865 24.5735 8.43983 24.5735 8.9865V14.4265C24.5735 14.9865 24.1202 15.4265 23.5735 15.4265Z" fill="white"/>
<path d="M23.5732 15.6666C22.9599 15.6666 22.3332 15.5333 21.8399 15.2533L18.6399 13.4799C17.5999 12.9066 16.8132 11.56 16.8132 10.3733V6.98658C16.8132 5.78658 17.5999 4.4533 18.6532 3.86663L21.8532 2.09327C22.8399 1.54661 24.3199 1.54661 25.3199 2.09327L28.5199 3.86663C29.5599 4.43996 30.3466 5.78657 30.3466 6.97324V10.36C30.3466 11.56 29.5599 12.8932 28.5199 13.4666L25.3199 15.2399C24.7999 15.5333 24.1866 15.6666 23.5732 15.6666ZM22.8132 3.82659L19.6132 5.59995C19.2132 5.82661 18.8132 6.50656 18.8132 6.95989V10.3466C18.8132 10.8133 19.2132 11.4933 19.6132 11.7066L22.8132 13.4933C23.1999 13.7066 23.9466 13.7066 24.3332 13.4933L27.5332 11.7199C27.9332 11.4932 28.3332 10.8133 28.3332 10.36V6.97324C28.3332 6.50657 27.9332 5.82663 27.5332 5.61329L24.3332 3.83994C23.9466 3.61327 23.1866 3.61326 22.8132 3.82659Z" fill="white"/>
<path d="M8.4267 24.6665C8.25336 24.6665 8.08002 24.6265 7.92002 24.5332L2.62669 21.4665C2.14669 21.1865 1.98668 20.5732 2.26668 20.0932C2.54668 19.6132 3.16002 19.4532 3.62669 19.7332L8.4267 22.5065L13.1867 19.7465C13.6667 19.4665 14.28 19.6399 14.5467 20.1065C14.8267 20.5865 14.6534 21.1998 14.1867 21.4798L8.92002 24.5199C8.77336 24.6132 8.60003 24.6665 8.4267 24.6665Z" fill="white"/>
<path d="M8.42651 30.0932C7.87985 30.0932 7.42651 29.6398 7.42651 29.0932V23.6532C7.42651 23.1065 7.87985 22.6532 8.42651 22.6532C8.97318 22.6532 9.42651 23.1065 9.42651 23.6532V29.0932C9.42651 29.6532 8.98651 30.0932 8.42651 30.0932Z" fill="white"/>
<path d="M8.42676 30.3333C7.81342 30.3333 7.18675 30.1999 6.69342 29.9199L3.49341 28.1466C2.45341 27.5732 1.66675 26.2266 1.66675 25.04V21.6532C1.66675 20.4532 2.45341 19.1199 3.49341 18.5466L6.69342 16.7733C7.68009 16.2266 9.17341 16.2266 10.1601 16.7733L13.3601 18.5466C14.4001 19.1199 15.1867 20.4666 15.1867 21.6532V25.04C15.1867 26.24 14.4001 27.5733 13.3467 28.1599L10.1467 29.9333C9.66675 30.1999 9.05342 30.3333 8.42676 30.3333ZM7.66675 18.4933L4.46676 20.2666C4.06676 20.4933 3.66675 21.1732 3.66675 21.6266V25.0133C3.66675 25.4799 4.06676 26.16 4.46676 26.3733L7.66675 28.1466C8.05341 28.3599 8.80008 28.3599 9.18675 28.1466L12.3867 26.3733C12.7867 26.1466 13.1867 25.4666 13.1867 25.0133V21.6266C13.1867 21.1599 12.7867 20.4799 12.3867 20.2666L9.18675 18.4799C8.81341 18.2799 8.05341 18.2799 7.66675 18.4933Z" fill="white"/>
</svg>
