<svg width="32" height="32" viewBox="0 0 32 32" fill="none" xmlns="http://www.w3.org/2000/svg">
<path d="M17.3334 19.6667H2.66675C2.12008 19.6667 1.66675 19.2133 1.66675 18.6667V10.16C1.66675 9.73332 1.9334 9.35996 2.32007 9.21329C2.72007 9.06663 3.16009 9.18667 3.42676 9.50667C4.24009 10.48 5.50676 11.0266 6.76009 10.9866C7.82676 10.96 8.81339 10.56 9.56006 9.85335C9.90673 9.56001 10.1867 9.21332 10.4001 8.82665C10.8134 8.11999 11.0134 7.34664 11.0001 6.55997C10.9734 5.33331 10.4401 4.21331 9.53345 3.39998C9.21345 3.11998 9.10675 2.67996 9.25342 2.29329C9.40008 1.90662 9.77343 1.63997 10.1868 1.63997H20.0001C20.5467 1.63997 21.0001 2.0933 21.0001 2.63997V15.9733C21.0001 18.0266 19.3601 19.6667 17.3334 19.6667ZM3.66675 17.6667H17.3334C18.2534 17.6667 19.0001 16.92 19.0001 16V3.66666H12.2534C12.7201 4.53333 12.9734 5.50668 13.0001 6.52001C13.0267 7.68001 12.7334 8.82665 12.1467 9.82665C11.8267 10.4 11.3867 10.9467 10.9067 11.3467C9.84007 12.36 8.3734 12.96 6.8134 13C5.6934 13.04 4.61343 12.76 3.68009 12.2533V17.6667H3.66675Z" fill="white"/>
<path d="M25.3334 27.6667H24.0001C23.4534 27.6667 23.0001 27.2133 23.0001 26.6667C23.0001 25.7467 22.2534 25 21.3334 25C20.4134 25 19.6667 25.7467 19.6667 26.6667C19.6667 27.2133 19.2134 27.6667 18.6667 27.6667H13.3334C12.7867 27.6667 12.3334 27.2133 12.3334 26.6667C12.3334 25.7467 11.5867 25 10.6667 25C9.74675 25 9.00008 25.7467 9.00008 26.6667C9.00008 27.2133 8.54675 27.6667 8.00008 27.6667H6.66675C3.90675 27.6667 1.66675 25.4267 1.66675 22.6667V18.6667C1.66675 18.12 2.12008 17.6667 2.66675 17.6667H17.3334C18.2534 17.6667 19.0001 16.92 19.0001 16V6.66667C19.0001 6.12001 19.4534 5.66667 20.0001 5.66667H22.4535C23.7735 5.66667 24.9867 6.37336 25.6401 7.52002L27.9201 11.5067C28.0934 11.8133 28.0934 12.2 27.9201 12.5067C27.7468 12.8133 27.4134 13 27.0534 13H25.3334C25.1467 13 25.0001 13.1467 25.0001 13.3333V17.3333C25.0001 17.52 25.1467 17.6667 25.3334 17.6667H29.3334C29.8801 17.6667 30.3334 18.12 30.3334 18.6667V22.6667C30.3334 25.4267 28.0934 27.6667 25.3334 27.6667ZM24.8668 25.6667H25.3334C26.9867 25.6667 28.3334 24.32 28.3334 22.6667V19.6667H25.3334C24.0534 19.6667 23.0001 18.6133 23.0001 17.3333V13.3333C23.0001 12.0533 24.0401 11 25.3334 11L23.9067 8.50668C23.6134 7.98668 23.0535 7.66667 22.4535 7.66667H21.0001V16C21.0001 18.0267 19.3601 19.6667 17.3334 19.6667H3.66675V22.6667C3.66675 24.32 5.01341 25.6667 6.66675 25.6667H7.13338C7.57338 24.1333 8.98675 23 10.6667 23C12.3467 23 13.7601 24.1333 14.2001 25.6667H17.8134C18.2534 24.1333 19.6668 23 21.3468 23C23.0268 23 24.4268 24.1333 24.8668 25.6667Z" fill="white"/>
<path d="M10.6667 30.3333C8.64 30.3333 7 28.6933 7 26.6667C7 24.64 8.64 23 10.6667 23C12.6933 23 14.3333 24.64 14.3333 26.6667C14.3333 28.6933 12.6933 30.3333 10.6667 30.3333ZM10.6667 25C9.74667 25 9 25.7467 9 26.6667C9 27.5867 9.74667 28.3333 10.6667 28.3333C11.5867 28.3333 12.3333 27.5867 12.3333 26.6667C12.3333 25.7467 11.5867 25 10.6667 25Z" fill="white"/>
<path d="M21.3334 30.3333C19.3067 30.3333 17.6667 28.6933 17.6667 26.6667C17.6667 24.64 19.3067 23 21.3334 23C23.3601 23 25.0001 24.64 25.0001 26.6667C25.0001 28.6933 23.3601 30.3333 21.3334 30.3333ZM21.3334 25C20.4134 25 19.6667 25.7467 19.6667 26.6667C19.6667 27.5867 20.4134 28.3333 21.3334 28.3333C22.2534 28.3333 23.0001 27.5867 23.0001 26.6667C23.0001 25.7467 22.2534 25 21.3334 25Z" fill="white"/>
<path d="M29.3333 19.6667H25.3333C24.0533 19.6667 23 18.6133 23 17.3333V13.3333C23 12.0533 24.0533 11 25.3333 11H27.0533C27.4133 11 27.7467 11.1867 27.92 11.5067L30.2 15.5067C30.28 15.6533 30.3333 15.8267 30.3333 16V18.6667C30.3333 19.2133 29.88 19.6667 29.3333 19.6667ZM25.3333 13C25.1467 13 25 13.1467 25 13.3333V17.3333C25 17.52 25.1467 17.6667 25.3333 17.6667H28.3333V16.2667L26.4666 13H25.3333Z" fill="white"/>
<path d="M6.65355 13C4.81355 13 3.08022 12.2 1.90689 10.8C1.72022 10.6 1.52025 10.32 1.34691 10.0533C0.720246 9.10663 0.373579 7.98664 0.346913 6.81331C0.293579 4.86664 1.12026 3.03996 2.6136 1.79996C3.74693 0.866629 5.10686 0.359995 6.54686 0.333328C8.1202 0.346662 9.6936 0.866665 10.8669 1.92C12.2003 3.09333 12.9736 4.73335 13.0136 6.52001C13.0402 7.68001 12.7469 8.82666 12.1602 9.82666C11.8402 10.4 11.4002 10.9467 10.9202 11.3467C9.85357 12.36 8.38689 12.96 6.82689 13C6.76023 13 6.70689 13 6.65355 13ZM6.65355 2.33333C6.62689 2.33333 6.60022 2.33333 6.57356 2.33333C5.60022 2.34666 4.66686 2.70667 3.8802 3.34667C2.86686 4.18667 2.3069 5.44 2.33357 6.76C2.36023 7.56 2.58691 8.32002 3.01358 8.94669C3.13358 9.13336 3.25355 9.30663 3.40022 9.46663C4.25355 10.48 5.52024 11.0133 6.76024 10.9866C7.82691 10.96 8.81354 10.56 9.56021 9.85335C9.90688 9.56001 10.1869 9.21332 10.4002 8.82666C10.8135 8.11999 11.0136 7.34664 11.0002 6.55997C10.9736 5.33331 10.4403 4.21331 9.5336 3.39998C8.7336 2.71998 7.72022 2.33333 6.65355 2.33333Z" fill="white"/>
<path d="M5.93325 8.99991C5.67992 8.99991 5.43989 8.90654 5.23989 8.71988L3.89321 7.43993C3.49321 7.05326 3.47993 6.4266 3.8666 6.0266C4.25327 5.6266 4.87993 5.61324 5.27993 5.99991L5.93325 6.62653L8.02659 4.59992C8.42659 4.21326 9.05326 4.22653 9.43992 4.62653C9.82659 5.02653 9.81323 5.65328 9.41323 6.03995L6.62653 8.73322C6.42653 8.90656 6.17325 8.99991 5.93325 8.99991Z" fill="white"/>
</svg>
